<svg viewBox="0 0 600 600" xmlns="http://www.w3.org/2000/svg">

<g stroke="#4C1D95" stroke-width="2.2" fill="none">

<!-- INNER CIRCLES -->

<circle cx="300" cy="300" r="40"/>
<circle cx="300" cy="300" r="80"/>
<circle cx="300" cy="300" r="120"/>
<circle cx="300" cy="300" r="160"/>
<circle cx="300" cy="300" r="200"/>
<circle cx="300" cy="300" r="230"/>

<!-- INNER PETALS -->

<g transform="translate(300,300)">

<path d="M0,-150 Q35,-200 0,-240 Q-35,-200 0,-150"/>
<path d="M0,-150 Q35,-200 0,-240 Q-35,-200 0,-150" transform="rotate(15)"/>
<path d="M0,-150 Q35,-200 0,-240 Q-35,-200 0,-150" transform="rotate(30)"/>
<path d="M0,-150 Q35,-200 0,-240 Q-35,-200 0,-150" transform="rotate(45)"/>
<path d="M0,-150 Q35,-200 0,-240 Q-35,-200 0,-150" transform="rotate(60)"/>
<path d="M0,-150 Q35,-200 0,-240 Q-35,-200 0,-150" transform="rotate(75)"/>
<path d="M0,-150 Q35,-200 0,-240 Q-35,-200 0,-150" transform="rotate(90)"/>
<path d="M0,-150 Q35,-200 0,-240 Q-35,-200 0,-150" transform="rotate(105)"/>
<path d="M0,-150 Q35,-200 0,-240 Q-35,-200 0,-150" transform="rotate(120)"/>
<path d="M0,-150 Q35,-200 0,-240 Q-35,-200 0,-150" transform="rotate(135)"/>
<path d="M0,-150 Q35,-200 0,-240 Q-35,-200 0,-150" transform="rotate(150)"/>
<path d="M0,-150 Q35,-200 0,-240 Q-35,-200 0,-150" transform="rotate(165)"/>
<path d="M0,-150 Q35,-200 0,-240 Q-35,-200 0,-150" transform="rotate(180)"/>
<path d="M0,-150 Q35,-200 0,-240 Q-35,-200 0,-150" transform="rotate(195)"/>
<path d="M0,-150 Q35,-200 0,-240 Q-35,-200 0,-150" transform="rotate(210)"/>
<path d="M0,-150 Q35,-200 0,-240 Q-35,-200 0,-150" transform="rotate(225)"/>
<path d="M0,-150 Q35,-200 0,-240 Q-35,-200 0,-150" transform="rotate(240)"/>
<path d="M0,-150 Q35,-200 0,-240 Q-35,-200 0,-150" transform="rotate(255)"/>
<path d="M0,-150 Q35,-200 0,-240 Q-35,-200 0,-150" transform="rotate(270)"/>
<path d="M0,-150 Q35,-200 0,-240 Q-35,-200 0,-150" transform="rotate(285)"/>
<path d="M0,-150 Q35,-200 0,-240 Q-35,-200 0,-150" transform="rotate(300)"/>
<path d="M0,-150 Q35,-200 0,-240 Q-35,-200 0,-150" transform="rotate(315)"/>
<path d="M0,-150 Q35,-200 0,-240 Q-35,-200 0,-150" transform="rotate(330)"/>
<path d="M0,-150 Q35,-200 0,-240 Q-35,-200 0,-150" transform="rotate(345)"/>

</g>

<!-- OUTER PETALS (EXTENDING OUTSIDE) -->

<g transform="translate(300,300)">

<path d="M0,-230 Q70,-320 0,-400 Q-70,-320 0,-230"/>
<path d="M0,-230 Q70,-320 0,-400 Q-70,-320 0,-230" transform="rotate(15)"/>
<path d="M0,-230 Q70,-320 0,-400 Q-70,-320 0,-230" transform="rotate(30)"/>
<path d="M0,-230 Q70,-320 0,-400 Q-70,-320 0,-230" transform="rotate(45)"/>
<path d="M0,-230 Q70,-320 0,-400 Q-70,-320 0,-230" transform="rotate(60)"/>
<path d="M0,-230 Q70,-320 0,-400 Q-70,-320 0,-230" transform="rotate(75)"/>
<path d="M0,-230 Q70,-320 0,-400 Q-70,-320 0,-230" transform="rotate(90)"/>
<path d="M0,-230 Q70,-320 0,-400 Q-70,-320 0,-230" transform="rotate(105)"/>
<path d="M0,-230 Q70,-320 0,-400 Q-70,-320 0,-230" transform="rotate(120)"/>
<path d="M0,-230 Q70,-320 0,-400 Q-70,-320 0,-230" transform="rotate(135)"/>
<path d="M0,-230 Q70,-320 0,-400 Q-70,-320 0,-230" transform="rotate(150)"/>
<path d="M0,-230 Q70,-320 0,-400 Q-70,-320 0,-230" transform="rotate(165)"/>
<path d="M0,-230 Q70,-320 0,-400 Q-70,-320 0,-230" transform="rotate(180)"/>
<path d="M0,-230 Q70,-320 0,-400 Q-70,-320 0,-230" transform="rotate(195)"/>
<path d="M0,-230 Q70,-320 0,-400 Q-70,-320 0,-230" transform="rotate(210)"/>
<path d="M0,-230 Q70,-320 0,-400 Q-70,-320 0,-230" transform="rotate(225)"/>
<path d="M0,-230 Q70,-320 0,-400 Q-70,-320 0,-230" transform="rotate(240)"/>
<path d="M0,-230 Q70,-320 0,-400 Q-70,-320 0,-230" transform="rotate(255)"/>
<path d="M0,-230 Q70,-320 0,-400 Q-70,-320 0,-230" transform="rotate(270)"/>
<path d="M0,-230 Q70,-320 0,-400 Q-70,-320 0,-230" transform="rotate(285)"/>
<path d="M0,-230 Q70,-320 0,-400 Q-70,-320 0,-230" transform="rotate(300)"/>
<path d="M0,-230 Q70,-320 0,-400 Q-70,-320 0,-230" transform="rotate(315)"/>
<path d="M0,-230 Q70,-320 0,-400 Q-70,-320 0,-230" transform="rotate(330)"/>
<path d="M0,-230 Q70,-320 0,-400 Q-70,-320 0,-230" transform="rotate(345)"/>

</g>

</g>

</svg>